HIERARCHY
ROOT Hips
{
	OFFSET 0.00 0.00 0.00
	CHANNELS 6 Xposition Yposition Zposition Xrotation Yrotation Zrotation
	JOINT Spine
	{
		OFFSET 0.00000 7.50895 0.00000
		CHANNELS 3 Xrotation Yrotation Zrotation
		JOINT Head
		{
			OFFSET 0.00000 13.86115 0.00000
			CHANNELS 3 Xrotation Yrotation Zrotation
			End Site
			{
				OFFSET 0.00000 4.52755 0.00000
			}
		}
		JOINT LeftShoulder
		{
			OFFSET 0.00000 8.20478 0.00000
			CHANNELS 3 Xrotation Yrotation Zrotation
			JOINT LeftArm
			{
				OFFSET 6.63596 0.00000 0.00000
				CHANNELS 3 Xrotation Yrotation Zrotation
				JOINT LeftForeArm
				{
					OFFSET 10.27422 0.00000 0.00000
					CHANNELS 3 Yrotation Zrotation Xrotation
					JOINT LeftHand
					{
						OFFSET 8.52215 0.00000 0.00000
						CHANNELS 3 Xrotation Yrotation Zrotation
						JOINT LeftHandThumb1
						{
							OFFSET 0.00000 0.00000 0.00000
							CHANNELS 3 Xrotation Zrotation Yrotation
							End Site
							{
								OFFSET 0.00000 0.00000 3.93700
							}
						}
						End Site
						{
							OFFSET 3.93700 0.00000 0.00000
						}
					}
				}
			}
		}
		JOINT RightShoulder
		{
			OFFSET 0.00000 8.20478 0.00000
			CHANNELS 3 Xrotation Yrotation Zrotation
			JOINT RightArm
			{
				OFFSET -6.63596 0.00000 0.00000
				CHANNELS 3 Xrotation Yrotation Zrotation
				JOINT RightForeArm
				{
					OFFSET -10.27422 0.00000 0.00000
					CHANNELS 3 Yrotation Zrotation Xrotation
					JOINT RightHand
					{
						OFFSET -8.52215 0.00000 0.00000
						CHANNELS 3 Xrotation Yrotation Zrotation
						JOINT RightHandThumb1
						{
							OFFSET 0.00000 0.00000 0.00000
							CHANNELS 3 Xrotation Zrotation Yrotation
							End Site
							{
								OFFSET 0.00000 0.00000 3.93700
							}
						}
						End Site
						{
							OFFSET -3.93700 0.00000 0.00000
						}
					}
				}
			}
		}
	}
	JOINT LeftUpLeg
	{
		OFFSET 3.00056 0.00000 0.00000
		CHANNELS 3 Xrotation Yrotation Zrotation
		JOINT LeftLeg
		{
			OFFSET 0.00000 -16.49085 0.00000
			CHANNELS 3 Xrotation Yrotation Zrotation
			JOINT LeftFoot
			{
				OFFSET 0.00000 -14.55658 0.00000
				CHANNELS 3 Xrotation Yrotation Zrotation
				JOINT LeftToeBase
				{
					OFFSET 0.00000 -1.25038 4.66650
					CHANNELS 3 Xrotation Yrotation Zrotation
					End Site
					{
						OFFSET 0.00000 0.00000 2.95275
					}
				}
			}
		}
	}
	JOINT RightUpLeg
	{
		OFFSET -3.00056 0.00000 0.00000
		CHANNELS 3 Xrotation Yrotation Zrotation
		JOINT RightLeg
		{
			OFFSET 0.00000 -16.49085 0.00000
			CHANNELS 3 Xrotation Yrotation Zrotation
			JOINT RightFoot
			{
				OFFSET 0.00000 -14.55658 0.00000
				CHANNELS 3 Xrotation Yrotation Zrotation
				JOINT RightToeBase
				{
					OFFSET 0.00000 -1.25038 4.66650
					CHANNELS 3 Xrotation Yrotation Zrotation
					End Site
					{
						OFFSET 0.00000 0.00000 2.95275
					}
				}
			}
		}
	}
}
MOTION
Frames: 15
Frame Time: 0.008333
 -39.1533 33.7245 -1.7184 6.7537 -16.0301 6.0254 -3.6716 6.7965 4.0421 -14.2656 7.2858 -1.5595 21.4960 12.3286 3.0931 -21.6613 -45.2313 -81.9048 -21.4458 -0.0000 -5.1847 1.8422 20.6816 -5.2036 33.1476 -0.0000 26.2537 -11.6175 -13.3688 -23.5857 13.4759 51.9520 85.0031 35.7850 0.0000 6.2319 0.6590 -2.6097 14.1775 32.8623 0.0000 -24.3270 -6.7807 9.9666 6.6465 14.4563 0.0000 0.0000 7.4160 29.9387 -12.8295 -8.1416 0.0000 0.0000 -6.2039 -27.5614 -0.1656 9.9801 -0.0000 0.0000 -2.4485 -21.8935 -6.5508 -5.8513 0.0000 0.0000
 -39.1737 33.7449 -1.7553 6.5932 -14.5586 5.7707 -3.5845 6.5981 4.4213 -14.2251 7.5415 -1.8707 21.4471 12.3083 3.0828 -21.5295 -45.3728 -81.5868 -21.1868 -0.0000 -4.7544 2.1948 20.6034 -6.2157 33.1476 -0.0000 26.2537 -11.6581 -13.2259 -23.7671 13.7152 51.8313 84.6173 35.8175 0.0000 6.4186 0.6678 -2.6291 14.2574 32.8623 0.0000 -24.3270 -7.0853 9.6056 6.2836 14.2873 0.0000 0.0000 6.7364 28.8084 -11.9089 -7.7810 0.0000 -0.0000 -6.0053 -27.3788 -0.3093 10.1600 0.0000 -0.0000 -2.1666 -21.2923 -5.7478 -6.2703 -0.0000 0.0000
 -39.1926 33.7611 -1.7912 6.4430 -13.0947 5.5094 -3.5204 6.4189 4.8117 -14.1898 7.6776 -2.2003 21.4162 12.1915 3.1347 -21.3068 -45.4805 -81.2409 -20.9801 -0.0000 -4.3536 2.1412 20.6897 -6.0408 33.1476 -0.0000 26.2537 -11.7281 -13.1026 -23.9888 14.0354 51.7530 84.2103 35.8379 0.0000 6.3147 0.6615 -2.6214 14.1674 32.8623 0.0000 -24.3270 -7.3405 9.1036 5.9296 14.0689 0.0000 -0.0000 6.2130 28.1742 -11.3705 -7.4505 0.0000 -0.0000 -5.8056 -27.1050 -0.4644 10.3471 0.0000 -0.0000 -1.9605 -20.9532 -5.3140 -6.6915 0.0000 -0.0000
 -39.2060 33.7740 -1.8361 6.3408 -11.6125 5.2307 -3.4774 6.2011 5.2706 -14.2235 7.7926 -2.6048 21.3881 12.1216 3.1518 -21.2104 -45.5968 -80.9605 -20.6854 -0.0000 -4.1884 2.1382 20.9777 -5.9539 33.1476 -0.0000 26.2537 -11.7952 -13.0965 -24.1997 14.4219 51.8084 83.5696 36.0312 0.0000 6.4865 0.7683 -3.0043 14.3527 32.8623 0.0000 -24.3270 -7.6852 8.5778 5.6223 13.9356 0.0000 0.0000 5.9014 27.8341 -11.3311 -7.8147 0.0000 -0.0000 -5.6725 -26.8556 -0.6123 10.6441 -0.0000 0.0000 -1.7902 -20.3260 -4.3681 -6.8866 -0.0000 0.0000
 -39.2112 33.7836 -1.8729 6.2379 -10.2698 5.0094 -3.4382 6.0354 5.7056 -14.2221 8.0122 -2.9912 21.2317 12.0881 3.1495 -20.9475 -45.8154 -80.6438 -20.2992 -0.0000 -4.4554 1.5897 21.2686 -4.3752 33.1476 -0.0000 26.2537 -11.8852 -12.8825 -24.4823 14.7161 51.4738 83.3578 35.8895 0.0000 7.5457 0.6399 -2.6107 13.7765 32.8623 0.0000 -24.3270 -7.9250 8.1069 5.2456 13.7736 -0.0000 -0.0000 5.6251 27.7063 -12.0005 -7.7061 0.0000 0.0000 -5.5180 -26.3582 -0.8152 10.9377 0.0000 -0.0000 -1.8252 -19.6153 -3.2101 -7.4103 -0.0000 -0.0000
 -39.2163 33.7867 -1.9067 6.0914 -8.9738 4.7964 -3.3238 5.8517 6.1226 -14.2761 8.2444 -3.4009 21.1077 12.1821 3.1362 -20.7614 -46.0435 -80.3397 -20.0250 -0.0000 -4.3859 1.6731 21.3066 -4.5959 33.1476 -0.0000 26.2537 -12.0014 -12.6900 -24.7625 14.9823 51.1677 83.0701 35.8520 0.0000 8.1374 0.6713 -2.6616 14.1616 32.8623 0.0000 -24.3270 -8.1106 7.6932 4.8893 13.6362 0.0000 -0.0000 5.3110 27.7289 -12.3341 -7.0131 0.0000 -0.0000 -5.3134 -25.9258 -1.0463 11.2440 -0.0000 0.0000 -1.8726 -18.6882 -2.1914 -7.8412 -0.0000 -0.0000
 -39.2177 33.7851 -1.9393 5.9658 -7.7547 4.6018 -3.2211 5.7297 6.5175 -14.3347 8.5102 -3.6962 20.9627 12.1873 3.2020 -20.4501 -46.1404 -80.0490 -19.8951 -0.0000 -4.2805 1.7371 21.2267 -4.7882 33.1476 -0.0000 26.2537 -12.1091 -12.5583 -25.0267 15.2961 50.7533 82.7491 35.8296 0.0000 8.4858 0.6514 -2.5658 14.2511 32.8623 0.0000 -24.3270 -8.2684 7.2772 4.5390 13.5151 0.0000 -0.0000 5.0073 27.6618 -12.5406 -7.2676 0.0000 0.0000 -5.1005 -25.5938 -1.3114 11.4257 -0.0000 0.0000 -2.0336 -17.4808 -1.6365 -7.0841 -0.0000 -0.0000
 -39.2073 33.7800 -1.9742 5.8775 -6.5975 4.4892 -3.1637 5.6687 6.8547 -14.3611 8.7185 -4.0963 20.9926 12.1494 3.2307 -20.2724 -46.2056 -79.7399 -19.7701 -0.0000 -4.2372 1.7714 21.3646 -4.8523 33.1476 -0.0000 26.2537 -12.2219 -12.3713 -25.3241 15.5363 50.0794 82.5952 35.7725 0.0000 8.9571 0.6872 -2.6827 14.3736 32.8623 0.0000 -24.3270 -8.4431 6.9104 4.0855 13.5106 -0.0000 -0.0000 4.4569 27.9416 -12.5238 -7.4384 -0.0000 0.0000 -5.0047 -25.1349 -1.7124 11.8169 0.0000 0.0000 -2.0405 -15.9019 0.0659 -7.6043 -0.0000 -0.0000
 -39.2026 33.7664 -2.0116 5.8241 -5.5209 4.3741 -3.1648 5.6962 7.1480 -14.3845 8.8281 -4.3876 20.9914 12.0795 3.3803 -20.0559 -46.0804 -79.4698 -19.6832 -0.0000 -3.9571 1.9302 21.0746 -5.3542 33.1476 -0.0000 26.2537 -12.3301 -12.2965 -25.5666 15.9118 49.8241 82.1966 35.7170 0.0000 9.0272 0.6909 -2.6899 14.4102 32.8623 0.0000 -24.3270 -8.6197 6.6476 3.7313 13.4357 -0.0000 -0.0000 3.9923 27.9200 -12.6291 -7.7478 0.0000 -0.0000 -4.8829 -24.5505 -2.0267 12.1261 0.0000 -0.0000 -2.3400 -14.5389 0.9000 -7.3396 -0.0000 -0.0000
 -39.1993 33.7442 -2.0520 5.7728 -4.4702 4.2852 -3.1393 5.7362 7.3764 -14.4251 8.8767 -4.6252 20.8833 12.0307 3.5359 -19.7323 -46.0387 -79.1534 -19.7387 -0.0000 -4.0711 1.9141 21.7451 -5.1544 33.1476 -0.0000 26.2537 -12.3484 -12.2048 -25.7530 16.1507 49.3818 81.9006 35.6244 0.0000 9.2375 0.6981 -2.7265 14.3683 32.8623 0.0000 -24.3270 -8.7889 6.2985 3.3896 13.3833 0.0000 0.0000 3.3446 27.9543 -12.2434 -7.0805 0.0000 -0.0000 -4.7382 -24.0580 -2.2876 12.2535 0.0000 -0.0000 -2.6188 -13.3281 0.9436 -7.7683 0.0000 -0.0000
 -39.2366 33.7125 -2.0830 5.6744 -3.1508 4.1437 -3.1176 5.5493 7.4470 -14.4673 8.9458 -4.5174 20.9680 12.0379 3.7830 -19.5414 -46.0378 -78.7081 -19.7330 -0.0000 -4.1251 1.8461 21.7966 -4.9610 33.1476 -0.0000 26.2537 -12.3672 -12.1962 -25.7903 16.3380 48.7560 81.7762 35.4491 0.0000 9.6531 0.6945 -2.6969 14.4475 32.8623 0.0000 -24.3270 -9.1525 6.0833 3.1983 13.7088 -0.0000 -0.0000 2.7278 27.6467 -11.7443 -6.7103 -0.0000 0.0000 -4.3471 -24.0618 -2.3722 12.1116 -0.0000 0.0000 -2.9098 -12.4671 0.7057 -7.9827 0.0000 0.0000
 -39.2414 33.6777 -2.1129 5.6195 -2.2053 4.0333 -3.0882 5.5888 7.6692 -14.5338 9.0801 -4.6756 20.9240 12.0681 3.8926 -19.1791 -45.7702 -78.3253 -19.8491 -0.0000 -3.8763 1.9153 21.8409 -5.1363 33.1476 -0.0000 26.2537 -12.3832 -12.1025 -25.9394 16.5081 48.1552 81.5889 35.2831 0.0000 9.8773 0.6984 -2.6814 14.6052 32.8623 0.0000 -24.3270 -9.2500 5.8138 2.9507 13.6442 -0.0000 -0.0000 2.2464 27.7355 -12.1441 -7.0942 -0.0000 0.0000 -4.0158 -23.3994 -2.4849 11.9845 -0.0000 -0.0000 -3.2999 -11.7288 0.8829 -7.8173 0.0000 -0.0000
 -39.2427 33.6378 -2.1476 5.6038 -1.3619 3.9218 -3.0972 5.7457 7.9056 -14.5794 9.1428 -4.8452 21.0483 12.1337 3.9505 -19.0380 -45.6654 -77.9753 -19.9086 -0.0000 -3.8424 1.8378 22.0190 -4.8917 33.1476 -0.0000 26.2537 -12.4135 -12.0546 -26.0698 16.8412 47.8555 81.1705 35.1778 0.0000 9.8915 0.7118 -2.7642 14.4458 32.8623 0.0000 -24.3270 -9.3349 5.5375 2.7565 13.4716 -0.0000 0.0000 1.5606 27.7371 -11.5901 -6.8280 0.0000 0.0000 -3.7456 -23.0140 -2.5325 11.8304 -0.0000 0.0000 -3.8248 -11.0900 1.3539 -7.3580 -0.0000 0.0000
 -39.2436 33.5923 -2.1852 5.5888 -0.5622 3.7691 -3.0883 5.8830 8.2117 -14.6389 9.2562 -5.0623 21.2174 12.2589 3.9392 -18.9428 -45.5128 -77.6285 -20.0351 -0.0000 -3.7731 1.7442 22.0646 -4.6345 33.1476 -0.0000 26.2537 -12.4157 -11.9547 -26.2152 17.0884 47.3937 80.8414 35.0387 0.0000 9.9024 0.7288 -2.7902 14.6440 32.8623 0.0000 -24.3270 -9.4221 5.2513 2.6249 13.3132 -0.0000 0.0000 0.8886 27.8982 -11.1024 -6.8124 -0.0000 0.0000 -3.4314 -22.8265 -2.4841 11.5616 -0.0000 0.0000 -4.1589 -10.4872 1.5901 -7.5534 -0.0000 -0.0000
 -39.2459 33.5427 -2.2278 5.5540 0.1901 3.6544 -3.0017 6.0709 8.4291 -14.7970 9.3433 -5.1699 21.2785 12.3017 3.9710 -18.7026 -45.1868 -77.2324 -20.2573 -0.0000 -3.6790 1.5759 22.1645 -4.1708 33.1476 -0.0000 26.2537 -12.4196 -11.8387 -26.3128 17.2455 46.7373 80.6190 34.8535 0.0000 10.0394 0.7429 -2.8339 14.6965 32.8623 0.0000 -24.3270 -9.4899 4.9397 2.5084 13.1761 -0.0000 -0.0000 0.2479 28.1258 -10.7706 -6.6780 -0.0000 -0.0000 -3.0528 -22.6085 -2.3845 11.1409 -0.0000 0.0000 -4.6229 -10.4885 1.3429 -7.2396 -0.0000 0.0000
